<?xml version="1.0" standalone="no"?><!DOCTYPE svg PUBLIC "-//W3C//DTD SVG 1.1//EN" "http://www.w3.org/Graphics/SVG/1.1/DTD/svg11.dtd"><svg t="1608020308230" class="icon" viewBox="0 0 1423 1024" version="1.1" xmlns="http://www.w3.org/2000/svg" p-id="6506" xmlns:xlink="http://www.w3.org/1999/xlink" width="277.9296875" height="200"><defs><style type="text/css"></style></defs><path d="M1347.080214 208.085561l-146.024956-146.024955c-80.313725-80.313725-211.736185-80.313725-292.04991 0 0 0 7.301248 0-80.313726 83.964349l98.566845 91.265598 43.807487-47.458111c54.759358-54.759358 142.374332-54.759358 193.483066 0l47.45811 47.458111c54.759358 54.759358 54.759358 142.374332 0 193.483066l-237.290552 248.242424c-54.759358 54.759358-142.374332 54.759358-193.483066 0l-40.156863-65.71123c-83.964349-62.060606-58.409982-76.663102-51.108735-120.470588L584.099822 386.966132c-80.313725 80.313725-80.313725 211.736185 0 292.049911l146.024955 146.024955c80.313725 80.313725 211.736185 80.313725 292.049911 0l324.905526-328.55615c113.16934-127.771836 0-288.399287 0-288.399287z" p-id="6507"></path><path d="M452.677362 817.73975c-80.313725 69.361854-131.42246 65.71123-186.181818 14.602496L204.434938 766.631016c-54.759358-54.759358-54.759358-142.374332 0-193.483066l262.844919-262.84492c54.759358-54.759358 142.374332-54.759358 193.483066 0l47.458111 47.458111c40.156863 40.156863 51.108734 102.217469 29.204991 153.326203l116.819964 91.265597c80.313725-80.313725 80.313725-211.736185 0-292.049911l-146.024955-146.024955c-80.313725-80.313725-211.736185-80.313725-292.049911 0l-361.411765 361.411765c-80.313725 80.313725-80.313725 211.736185 0 292.04991l146.024956 146.024956c80.313725 80.313725 211.736185 80.313725 292.049911 0l138.723707-142.374332-98.566845-94.916221-80.313725 91.265597z" p-id="6508"></path></svg>