<?xml version="1.0" standalone="no"?><!DOCTYPE svg PUBLIC "-//W3C//DTD SVG 1.1//EN" "http://www.w3.org/Graphics/SVG/1.1/DTD/svg11.dtd"><svg t="1607672734652" class="icon" viewBox="0 0 1057 1024" version="1.1" xmlns="http://www.w3.org/2000/svg" p-id="4211" xmlns:xlink="http://www.w3.org/1999/xlink" width="206.4453125" height="200"><defs><style type="text/css"></style></defs><path d="M1032.357161 901.84671h-47.896774V332.403613c0-52.124903-43.173161-94.868645-95.95871-94.868645H696.650323v664.278709h-48.061936V95.198968c0-52.157935-43.140129-94.901677-95.925677-94.901678H169.059097C116.273548 0.264258 73.100387 43.008 73.100387 95.132903v806.713807H25.203613c-14.369032 0-24.014452 9.51329-24.014452 23.750193v47.500387c0 14.269935 9.51329 23.783226 24.014452 23.783226h1007.153548c14.369032 0 24.014452-9.51329 24.014452-23.783226v-47.500387c0-14.236903-9.645419-23.783226-24.014452-23.783226zM313.013677 688.326194c0 14.236903-9.612387 23.783226-24.014451 23.783225H193.073548c-14.402065 0-24.014452-9.546323-24.014451-23.783225V640.825806c0-14.269935 9.612387-23.783226 24.014451-23.783225h95.925678c14.402065 0 24.014452 9.51329 24.014451 23.783225v47.500388z m0-189.770323c0 14.269935-9.612387 23.783226-24.014451 23.783226H193.073548c-14.402065 0-24.014452-9.51329-24.014451-23.783226v-47.500387c0-14.269935 9.612387-23.783226 24.014451-23.783226h95.925678c14.402065 0 24.014452 9.51329 24.014451 23.783226v47.500387z m0-189.902452c0 14.269935-9.612387 23.783226-24.014451 23.783226H193.073548c-14.402065 0-24.014452-9.51329-24.014451-23.783226V261.153032c0-14.236903 9.612387-23.750194 24.014451-23.750193h95.925678c14.402065 0 24.014452 9.51329 24.014451 23.783226v47.467354z m239.814194 379.672775c0 14.236903-9.678452 23.783226-24.047484 23.783225h-95.925677c-14.402065 0-24.014452-9.546323-24.014452-23.783225V640.825806c0-14.269935 9.612387-23.783226 24.014452-23.783225h95.925677c14.369032 0 24.014452 9.51329 24.014452 23.783225v47.500388z m0-189.770323c0 14.269935-9.678452 23.783226-24.047484 23.783226h-95.925677c-14.402065 0-24.014452-9.51329-24.014452-23.783226v-47.500387c0-14.269935 9.612387-23.783226 24.014452-23.783226h95.925677c14.369032 0 24.014452 9.51329 24.014452 23.783226v47.500387z m0-189.902452c0 14.269935-9.678452 23.783226-24.047484 23.783226h-95.925677c-14.402065 0-24.014452-9.51329-24.014452-23.783226V261.153032c0-14.236903 9.612387-23.750194 24.014452-23.750193h95.925677c14.369032 0 24.014452 9.51329 24.014452 23.783226v47.467354z m359.72129 379.672775c0 14.236903-9.645419 23.783226-24.047484 23.783225h-95.925677c-14.369032 0-24.014452-9.546323-24.014452-23.783225V640.825806c0-14.269935 9.645419-23.783226 24.014452-23.783225h95.925677c14.402065 0 24.014452 9.51329 24.014452 23.783225v47.500388z m0-189.770323c0 14.269935-9.645419 23.783226-24.047484 23.783226h-95.925677c-14.369032 0-24.014452-9.51329-24.014452-23.783226v-47.500387c0-14.269935 9.645419-23.783226 24.014452-23.783226h95.925677c14.402065 0 24.014452 9.51329 24.014452 23.783226v47.500387z" p-id="4212"></path></svg>
