<?xml version="1.0" standalone="no"?><!DOCTYPE svg PUBLIC "-//W3C//DTD SVG 1.1//EN" "http://www.w3.org/Graphics/SVG/1.1/DTD/svg11.dtd"><svg t="1608621311637" class="icon" viewBox="0 0 1024 1024" version="1.1" xmlns="http://www.w3.org/2000/svg" p-id="10470" xmlns:xlink="http://www.w3.org/1999/xlink" width="200" height="200"><defs><style type="text/css"></style></defs><path d="M592.156 707.356L734.02 848.994l75.374 100.913 40.05 10.8 111.264-111.713-10.8-40.837L849.5 733.625 699.876 584.17l-105.92 105.75a106.313 106.313 0 0 1-1.856 17.437z m246.6 83.081a47.024 47.024 0 1 1 0 93.938 47.081 47.081 0 1 1 0-93.938zM531.238 415.755L448.1 332.787c10.687-20.924 17.1-41.962 17.1-61.255C465.2 164.994 363.164 62 256.513 63.182c-0.394 0-12.487 12.206-19.012 18.787 85.5 85.331 78.412 71.493 78.412 123.806 0 42.525-68.175 109.575-109.743 109.575-53.888 0-36.675 8.887-124.032-78.3-6.749 6.75-18.787 18.562-18.844 19.013 1.294 106.48 102.094 208.35 208.688 208.35 19.35 0 39.993-6.188 60.413-16.37l75.544 75.376c5.625-1.013 11.418-1.688 17.325-1.912l105.975-105.75z" p-id="10471"></path><path d="M871.438 597.331l56.812 55.294s82.012-226.8-15.3-323.944L784.923 200.937c-8.83-8.831-33.58-0.843-39.992-9.28a159.186 159.186 0 0 1-25.876-48.939c-3.936-18.73-23.85-37.012-39.937-53.1L673.1 83.6c-13.388-13.33-20.306-21.43-28.462-21.43-6.807 0-14.513 5.624-27.563 18.562l-77.738 77.85c-28.575 28.463-21.824 31.275 2.813 55.856l5.962 5.962c18 17.945 38.645 40.557 59.57 40.557h0.731c16.143 3.038 49.388 12.376 64.687 40.5 16.819 37.126-6.974 62.72-16.482 77.006l-208.856 208.35a66.375 66.375 0 0 0-19.687-3.262c-11.306 0-21.769 3.656-30.262 12.15l-6.694 6.637-216.562 216.226-6.638 6.637c-42.469 42.357 35.043 133.875 91.575 133.875a41.456 41.456 0 0 0 30.374-12.15l6.638-6.637L513.07 724.062l6.694-6.637c13.275-13.275 14.737-31.331 8.83-49.894l234-233.662c14.624-12.15 29.08-23.457 37.406-23.457 1.238 0 2.362 0.281 3.262 0.845 84.713 48.543 68.119 186.074 68.119 186.074z" p-id="10472"></path></svg>