<?xml version="1.0" standalone="no"?><!DOCTYPE svg PUBLIC "-//W3C//DTD SVG 1.1//EN" "http://www.w3.org/Graphics/SVG/1.1/DTD/svg11.dtd"><svg t="1608621349230" class="icon" viewBox="0 0 1024 1024" version="1.1" xmlns="http://www.w3.org/2000/svg" p-id="10598" xmlns:xlink="http://www.w3.org/1999/xlink" width="200" height="200"><defs><style type="text/css"></style></defs><path d="M70.475294 227.568941l155.286588 155.286588a57.223529 57.223529 0 0 0 80.896 0l116.434824-116.434823a57.223529 57.223529 0 0 0 0-80.896L283.828706 46.260706c126.132706-43.971765 267.986824-18.672941 364.423529 77.703529 136.975059 137.035294 130.409412 365.748706-14.697411 510.915765-145.167059 145.167059-373.880471 151.732706-510.915765 14.697412-111.435294-111.435294-127.879529-283.527529-52.10353-422.008471z" p-id="10599"></path><path d="M504.591059 689.212235l201.788235-201.728 298.164706 298.164706a60.235294 60.235294 0 0 1 0 85.172706l-116.615529 116.555294a60.235294 60.235294 0 0 1-85.172706 0l-298.164706-298.164706z" p-id="10600"></path></svg>