<?xml version="1.0" standalone="no"?><!DOCTYPE svg PUBLIC "-//W3C//DTD SVG 1.1//EN" "http://www.w3.org/Graphics/SVG/1.1/DTD/svg11.dtd"><svg t="1608270453278" class="icon" viewBox="0 0 1024 1024" version="1.1" xmlns="http://www.w3.org/2000/svg" p-id="8702" xmlns:xlink="http://www.w3.org/1999/xlink" width="200" height="200"><defs><style type="text/css"></style></defs><path d="M717.696 672.224c-171.2 0-240 172.8-240 172.8s68.8 172.8 240 172.8 240-172.8 240-172.8-68.8-172.8-240-172.8z m0 275.2c-56 0-102.4-46.4-102.4-104s46.4-104 102.4-104 102.4 46.4 102.4 104-46.4 104-102.4 104z" p-id="8703"></path><path d="M775.296 843.424c0 32-25.6 57.6-57.6 57.6s-57.6-25.6-57.6-57.6 25.6-57.6 57.6-57.6 57.6 25.6 57.6 57.6z m-516.8-585.6c0 137.6 113.6 249.6 254.4 249.6s254.4-112 254.4-249.6-115.2-249.6-256-249.6-252.8 112-252.8 249.6z" p-id="8704"></path><path d="M840.896 635.424c-81.6-88-198.4-144-329.6-144-246.4 0-444.8 195.2-444.8 436.8 0 25.6 1.6 48 6.4 72h275.2c9.6-155.2 70.4-267.2 182.4-334.4 168-99.2 382.4 48 310.4-30.4z" p-id="8705"></path></svg>