<?xml version="1.0" standalone="no"?><!DOCTYPE svg PUBLIC "-//W3C//DTD SVG 1.1//EN" "http://www.w3.org/Graphics/SVG/1.1/DTD/svg11.dtd"><svg t="1608270744248" class="icon" viewBox="0 0 1493 1024" version="1.1" xmlns="http://www.w3.org/2000/svg" p-id="8831" xmlns:xlink="http://www.w3.org/1999/xlink" width="291.6015625" height="200"><defs><style type="text/css"></style></defs><path d="M735.872 1024c-240.042667 0-461.568-113.92-664.490667-341.717333a256 256 0 0 1 0-340.565334C274.304 113.877333 495.786667 0 735.872 0c240.085333 0 461.568 113.92 664.533333 341.717333a256 256 0 0 1 0 340.565334C1197.44 910.122667 975.957333 1024 735.872 1024z m15.061333-150.613333a361.386667 361.386667 0 1 0 0-722.773334 361.386667 361.386667 0 0 0 0 722.773334z m0-180.693334a180.693333 180.693333 0 1 1 0-361.386666 180.693333 180.693333 0 0 1 0 361.386666z" p-id="8832"></path></svg>
