<?xml version="1.0" standalone="no"?><!DOCTYPE svg PUBLIC "-//W3C//DTD SVG 1.1//EN" "http://www.w3.org/Graphics/SVG/1.1/DTD/svg11.dtd"><svg t="1607672413344" class="icon" viewBox="0 0 1024 1024" version="1.1" xmlns="http://www.w3.org/2000/svg" p-id="2088" xmlns:xlink="http://www.w3.org/1999/xlink" width="200" height="200"><defs><style type="text/css"></style></defs><path d="M853.333333 0a170.666667 170.666667 0 0 1 170.666667 170.666667v682.666666a170.666667 170.666667 0 0 1-170.666667 170.666667H170.666667a170.666667 170.666667 0 0 1-170.666667-170.666667V170.666667a170.666667 170.666667 0 0 1 170.666667-170.666667h682.666666zM170.666667 213.333333a42.666667 42.666667 0 0 0-42.666667 42.666667v512a42.666667 42.666667 0 1 0 85.333333 0v-106.666667h597.333334v106.666667a42.666667 42.666667 0 1 0 85.333333 0v-149.333333a42.666667 42.666667 0 0 0-42.666667-42.666667H213.333333V256a42.666667 42.666667 0 0 0-42.666666-42.666667z m149.333333 192a64 64 0 1 0 0 128 64 64 0 0 0 0-128z m484.394667 115.093334c-85.738667-97.706667-168.725333-142.570667-248.96-134.592-82.432 13.930667-125.077333 61.226667-127.936 141.845333H810.666667z" p-id="2089"></path></svg>