<?xml version="1.0" standalone="no"?><!DOCTYPE svg PUBLIC "-//W3C//DTD SVG 1.1//EN" "http://www.w3.org/Graphics/SVG/1.1/DTD/svg11.dtd"><svg t="1608019642457" class="icon" viewBox="0 0 1024 1024" version="1.1" xmlns="http://www.w3.org/2000/svg" p-id="5759" xmlns:xlink="http://www.w3.org/1999/xlink" width="200" height="200"><defs><style type="text/css"></style></defs><path d="M952.569689 401.488563a107.297211 107.297211 0 0 0-14.208811-41.384885 1.655395 1.655395 0 0 0-0.165539-0.303489 100.316961 100.316961 0 0 0-19.312946-21.6305l-15.753847-13.325933L594.204176 63.456823C549.039472 25.21719 475.015708 25.21719 429.795824 63.456823l-309.00714 261.359343-15.753846 13.325933a100.316961 100.316961 0 0 0-19.312947 21.6305l-0.165539 0.303489a107.242032 107.242032 0 0 0-14.181221 41.384885 110.580412 110.580412 0 0 0-0.882877 13.960501v470.877219c0 56.614522 42.929921 102.938004 95.433544 102.938004H858.046612c52.420854 0 95.461134-46.323481 95.461134-102.938004V415.449064a115.877677 115.877677 0 0 0-0.938057-13.960501z m-274.905995 20.168233c-27.093305 46.68215-55.483336 92.591782-83.321568 138.832494-2.758992 4.745467-5.711114 9.518524-9.684063 16.167695 6.593992 0.331079 11.532588 0.496619 16.553954 0.882878 14.870969 1.131187 30.017836 1.020827 44.585316 3.890179 12.525825 2.483093 17.464421 11.560178 17.519601 24.141183s-6.124963 19.947514-17.326472 23.341075a78.245022 78.245022 0 0 1-20.857982 3.61428c-22.872046 0.441439-45.744093 0.16554-69.499016 0.165539v42.791971c18.374889 0 36.998087-0.193129 55.621285 0a182.093493 182.093493 0 0 1 27.976182 1.876115c16.553954 2.758992 24.086003 11.587768 24.086003 26.127657s-7.697589 23.644564-24.610212 25.437909c-19.699205 2.069244-39.64672 1.793345-59.483874 2.372734-7.780358 0.220719-15.588307 0-23.313485 0-1.186367 16.747083-1.241547 32.50093-3.61428 47.896106-3.834999 24.830931-17.96104 36.473878-40.915856 35.866901-13.794962-0.386259-24.637801-6.428452-29.245319-19.064637a183.583349 183.583349 0 0 1-8.028668-36.970498c-1.186367-8.442517-0.220719-17.188522-0.220719-27.589923h-13.436293c-23.589384-0.662158-47.261538-0.524209-70.768153-2.427913-14.5123-1.158777-22.237478-9.132265-24.113592-19.892335-2.758992-15.367587 4.028129-26.844995 19.312946-30.652404a115.04998 115.04998 0 0 1 25.603449-2.758993c20.582083-0.386259 41.164165 0 62.546355 0v-43.01269c-22.568557 0-44.943985 0.220719-67.347002 0a84.259625 84.259625 0 0 1-21.023522-2.758992c-13.794962-3.807409-19.616435-11.974027-19.506075-25.21719 0-12.691365 5.517985-20.471723 19.506075-23.782514a172.57497 172.57497 0 0 1 30.045427-3.145251c9.187444-0.496619 18.430069 0 29.907477 0-4.193668-6.787121-7.00784-11.504998-9.959963-16.140105q-41.384885-64.394881-82.54905-128.762172c-2.234784-3.47633-4.276438-7.06302-6.262913-10.6773-13.794962-25.382729-8.056258-44.557726 17.492012-57.221501h18.01622c14.622659 5.269675 23.285895 16.857443 31.204203 29.272909q47.371898 74.327253 94.881746 148.599326c2.124424 3.338381 4.414388 6.593992 7.14579 10.64971 2.758992-4.055719 4.579927-6.787121 6.290502-9.628883q44.750855-73.996174 89.336172-148.019938c8.001078-13.381113 16.553954-25.879348 32.36298-30.873124h18.016219c25.658629 12.829314 31.921541 30.955894 17.078163 56.669702z" p-id="5760"></path></svg>
