<?xml version="1.0" standalone="no"?><!DOCTYPE svg PUBLIC "-//W3C//DTD SVG 1.1//EN" "http://www.w3.org/Graphics/SVG/1.1/DTD/svg11.dtd"><svg t="1608519636438" class="icon" viewBox="0 0 1024 1024" version="1.1" xmlns="http://www.w3.org/2000/svg" p-id="9578" xmlns:xlink="http://www.w3.org/1999/xlink" width="200" height="200"><defs><style type="text/css"></style></defs><path d="M768 128a128 128 0 0 1 128 128v426.666667a128 128 0 0 1-128 128h-110.336a42.666667 42.666667 0 0 0-30.165333 12.501333l-85.333334 85.333333a42.666667 42.666667 0 0 1-60.330666 0l-85.333334-85.333333A42.666667 42.666667 0 0 0 366.336 810.666667H256a128 128 0 0 1-128-128V256a128 128 0 0 1 128-128h512z m0 85.333333H256a42.666667 42.666667 0 0 0-42.368 37.674667L213.333333 256v426.666667a42.666667 42.666667 0 0 0 37.674667 42.368L256 725.333333h110.336a128 128 0 0 1 84.309333 31.701334l6.186667 5.802666L512 817.92l55.168-55.125333a128 128 0 0 1 82.048-37.205334l8.448-0.298666H768a42.666667 42.666667 0 0 0 42.368-37.674667L810.666667 682.666667V256a42.666667 42.666667 0 0 0-37.674667-42.368L768 213.333333z m-192 298.666667a21.333333 21.333333 0 0 1 21.333333 21.333333v42.666667a21.333333 21.333333 0 0 1-21.333333 21.333333h-213.333333a21.333333 21.333333 0 0 1-21.333334-21.333333v-42.666667a21.333333 21.333333 0 0 1 21.333334-21.333333h213.333333z m85.333333-170.666667a21.333333 21.333333 0 0 1 21.333334 21.333334v42.666666a21.333333 21.333333 0 0 1-21.333334 21.333334h-298.666666a21.333333 21.333333 0 0 1-21.333334-21.333334v-42.666666a21.333333 21.333333 0 0 1 21.333334-21.333334h298.666666z" p-id="9579"></path></svg>