<?xml version="1.0" standalone="no"?><!DOCTYPE svg PUBLIC "-//W3C//DTD SVG 1.1//EN" "http://www.w3.org/Graphics/SVG/1.1/DTD/svg11.dtd"><svg t="1607505372243" class="icon" viewBox="0 0 1024 1024" version="1.1" xmlns="http://www.w3.org/2000/svg" p-id="1362" xmlns:xlink="http://www.w3.org/1999/xlink" width="200" height="200"><defs><style type="text/css"></style></defs><path d="M800.9 626.06c23.95 0 46.78 4.66 67.84 12.85V398.35l16.13 10.6c5.2 4.03 11.57 5.97 17.7 5.97 8.32 0 16.68-3.61 22.22-10.56 9.67-12.02 7.74-29.51-4.5-39.02L562.79 86.99c-30.76-24.01-79.05-23.98-109.8 0L95.51 365.33c-12.22 9.51-14.31 27.02-4.65 39.02 9.64 12.04 26.99 14.09 39.2 4.59l17.74-10.6v454.5c0 47.71 44.43 78.37 89.32 78.37h417.94c-26-32.18-41.63-73.09-41.63-117.68-0.01-103.53 83.93-187.47 187.47-187.47zM541.48 868.53H353.41V633.44c0-32.33 35.87-78.36 94.03-78.36 58.16 0 94.04 46.05 94.04 78.36v235.09z" p-id="1363"></path><path d="M918.59 813.88c0-14.25 10.07-26.15 23.48-28.97-3.15-15.61-8.88-30.6-16.97-44.33a29.459 29.459 0 0 1-16.38 4.94c-16.35 0-29.61-13.26-29.61-29.61a29.446 29.446 0 0 1 6.69-18.74c-16.21-11.85-34.98-20.39-55.34-24.64-2.32 14.04-14.51 24.74-29.21 24.74-14.74 0-26.97-10.78-29.23-24.89-20.44 4.16-39.3 12.64-55.59 24.45a29.507 29.507 0 0 1 6.96 19.07c0 16.35-13.25 29.61-29.61 29.61-6.05 0.01-11.95-1.84-16.91-5.3a143.02 143.02 0 0 0-17.15 44.54c13.76 2.55 24.18 14.61 24.18 29.11 0 14.45-10.35 26.48-24.04 29.08 3.55 17.08 10.2 33.37 19.61 48.06a29.56 29.56 0 0 1 14.3-3.68c16.35 0 29.61 13.25 29.61 29.61 0.01 5.35-1.44 10.6-4.19 15.19a143.303 143.303 0 0 0 53.07 22.55c2.82-13.41 14.72-23.48 28.97-23.48 14.2 0 26.07 9.99 28.94 23.33 19.33-3.99 37.24-11.86 52.89-22.76a29.44 29.44 0 0 1-3.98-14.83c0-16.35 13.26-29.61 29.61-29.61 4.79-0.01 9.51 1.15 13.76 3.38 9.34-14.66 15.93-30.9 19.45-47.92-13.32-2.84-23.31-14.7-23.31-28.9z m-117.34 48.61c-26.85 0-48.62-21.77-48.62-48.62 0-26.85 21.77-48.62 48.62-48.62 26.85 0 48.62 21.77 48.62 48.62-0.01 26.86-21.77 48.62-48.62 48.62z" p-id="1364"></path></svg>