<?xml version="1.0" standalone="no"?><!DOCTYPE svg PUBLIC "-//W3C//DTD SVG 1.1//EN" "http://www.w3.org/Graphics/SVG/1.1/DTD/svg11.dtd"><svg t="1608114103045" class="icon" viewBox="0 0 1024 1024" version="1.1" xmlns="http://www.w3.org/2000/svg" p-id="7265" xmlns:xlink="http://www.w3.org/1999/xlink" width="200" height="200"><defs><style type="text/css"></style></defs><path d="M539.9 835.8h-1.6c-9.1-9-54.4-55.7-61.2-98-7.5-47.1 88.8-121.1 88.8-121.1l6.8-33.5c-14-6.6-23.3-11.2-28.9-14.1l-0.5-52c9.8-9.3 24.8-29.8 32.2-72.1 14.2-5.5 23.3-23.7 24.8-50.9 0.1-2.2 0.5-5.2 0.8-8.6 2.7-25.8 4-48.3-6.7-61-0.9-1.1-1.9-2-2.9-2.9 3.7-30.9 5.6-53.2 4.2-67.6-2.7-29.2-21-125.1-147-130.8-87.4 4.7-140.4 70.9-145.9 130.8-1.2 13 0 33.6 4 67.6-1 0.9-2 1.9-2.9 2.9-10.7 12.6-9.4 35-6.8 60.8 0.4 3.5 0.7 6.5 0.8 8.8 1.6 27.3 10.7 45.5 24.8 51 7.4 42.3 22.3 62.9 32.1 72.2l-0.5 52.3c-10.3 5.5-32.9 16.8-76.8 36.1-32.6 14.3-43.6 16.2-53.2 17.9-11.5 2-21.5 3.8-52.7 20.2-77 40.6-93.9 123.3-97.6 158.8h-0.1c-0.9 5.8-3.5 25-0.3 34.3 8.5 18.5 28 32.2 48.9 32.2h370.3v0.1H540v-31.7h-0.1v-1.7z m410-125.6c-0.5-0.7-1.1-1.3-1.8-1.8l-19.2-19.3-186-187.6-3.5 3.5-1-1-183.8 185-19.6 19.7-0.4 0.4c-1.7 1.8-2.8 4.3-2.8 7 0 5.6 4.5 10.1 10 10.1h61.1v174.6h283.3V726.3H942.1c5.5 0 9.9-4.5 9.9-10 0-2.3-0.8-4.4-2.1-6.1z" p-id="7266"></path></svg>